<svg xmlns="http://www.w3.org/2000/svg" viewBox="0 0 207.36 207.36"><defs><style>.cls-1{fill:#273859;}.cls-2{fill:#fcb017;}.cls-3{fill:#fff;}.cls-4{fill:#f78e1e;}</style></defs><title>logo-simple</title><g id="Layer_2" data-name="Layer 2"><g id="simple-logo"><circle id="bg" class="cls-1" cx="103.68" cy="103.68" r="103.68"/><path id="head" class="cls-2" d="M203,86.4A67.78,67.78,0,0,1,78.13,123a74.12,74.12,0,0,0,14.15,1.35,74.68,74.68,0,0,0,70.19-49.22c.13-.37.27-.74.39-1.12.19-.54.37-1.08.54-1.63a74.73,74.73,0,0,0-4.58-56.51,104,104,0,0,1,34.05,34.94c1.1,1.82,2.12,3.67,3.09,5.56.11.22.21.43.32.64A67.57,67.57,0,0,1,203,86.4Z"/><path id="ear" class="cls-3" d="M166.84,52.91c-.79,13.19-2.21,15.39-4.49,22.54-.17.55-.63,1.56-.82,2.1-.12.38-.26.75-.39,1.12A56.3,56.3,0,0,1,157.5,86a69.33,69.33,0,0,1-12.6-40c0-7.9,1.87-14.95,4.35-22l.21-.58A67.59,67.59,0,0,1,152,16.26c.52-1.06,1-2.44,1.6-3.47a30.29,30.29,0,0,1,5.22,3.08c1.48,1,2.78,5.3,4.65,11.38A72.73,72.73,0,0,1,166.84,52.91Z"/><path id="body" class="cls-4" d="M207.36,103.68q0,3.31-.21,6.58A103.64,103.64,0,1,1,153.6,12.79a66.06,66.06,0,0,0-3,7l-.21.58A67.84,67.84,0,0,0,67.48,83.06c0,1.11-.08,2.22-.08,3.34A67.78,67.78,0,1,0,196.28,57,103.16,103.16,0,0,1,207.36,103.68Z"/></g></g></svg>